<mxfile host="app.diagrams.net" modified="2023-06-08T16:47:28.301Z" agent="Mozilla/5.0 (X11; Ubuntu; Linux x86_64; rv:109.0) Gecko/20100101 Firefox/113.0" etag="nnsr1eIqksQW6PIF8Kl2" version="21.3.4" type="github">
  <diagram name="Pagina-1" id="c6r7ROtZYmS65uKzIdzQ">
    <mxGraphModel dx="1355" dy="795" grid="1" gridSize="10" guides="1" tooltips="1" connect="1" arrows="1" fold="1" page="1" pageScale="1" pageWidth="827" pageHeight="1169" math="0" shadow="0">
      <root>
        <mxCell id="0" />
        <mxCell id="1" parent="0" />
        <mxCell id="LnVoANyj6Dh3y2EfFEzu-21" style="edgeStyle=orthogonalEdgeStyle;rounded=0;orthogonalLoop=1;jettySize=auto;html=1;entryX=0.5;entryY=1;entryDx=0;entryDy=0;endArrow=block;endFill=0;startSize=12;endSize=10;" parent="1" source="LnVoANyj6Dh3y2EfFEzu-4" target="LnVoANyj6Dh3y2EfFEzu-14" edge="1">
          <mxGeometry relative="1" as="geometry" />
        </mxCell>
        <mxCell id="LnVoANyj6Dh3y2EfFEzu-4" value="GestioneAssistenza Controller" style="swimlane;fontStyle=1;align=center;verticalAlign=top;childLayout=stackLayout;horizontal=1;startSize=30;horizontalStack=0;resizeParent=1;resizeParentMax=0;resizeLast=0;collapsible=1;marginBottom=0;whiteSpace=wrap;html=1;fillColor=#60a917;fontColor=#ffffff;strokeColor=#2D7600;" parent="1" vertex="1">
          <mxGeometry x="115" y="360" width="220" height="190" as="geometry" />
        </mxCell>
        <mxCell id="LnVoANyj6Dh3y2EfFEzu-5" value="" style="line;strokeWidth=1;fillColor=none;align=left;verticalAlign=middle;spacingTop=-1;spacingLeft=3;spacingRight=3;rotatable=0;labelPosition=right;points=[];portConstraint=eastwest;strokeColor=inherit;" parent="LnVoANyj6Dh3y2EfFEzu-4" vertex="1">
          <mxGeometry y="30" width="220" height="8" as="geometry" />
        </mxCell>
        <mxCell id="LnVoANyj6Dh3y2EfFEzu-6" value="&lt;div&gt;+List&amp;lt;Professionista&amp;gt; getProfessionistiInAttesa()&lt;/div&gt;&lt;div&gt;+List&amp;lt;UtenteStandard&amp;gt; getUtentiBloccati()&lt;/div&gt;&lt;div&gt;+List&amp;lt;Segnalazione&amp;gt; getSegnalazioni()&lt;/div&gt;&lt;div&gt;+bloccaUtente(Username)&lt;/div&gt;&lt;div&gt;+sbloccaUtente(Username)&lt;/div&gt;&lt;div&gt;+rimuoviCommento(IdCommento)&lt;/div&gt;&lt;div&gt;+rimuoviPost(IdPost)&lt;/div&gt;&lt;div&gt;+accettaProfessionista(Username)&lt;br&gt;&lt;/div&gt;" style="text;strokeColor=none;fillColor=none;align=center;verticalAlign=top;spacingLeft=4;spacingRight=4;overflow=hidden;rotatable=0;points=[[0,0.5],[1,0.5]];portConstraint=eastwest;whiteSpace=wrap;html=1;" parent="LnVoANyj6Dh3y2EfFEzu-4" vertex="1">
          <mxGeometry y="38" width="220" height="152" as="geometry" />
        </mxCell>
        <mxCell id="LnVoANyj6Dh3y2EfFEzu-14" value="Controller" style="swimlane;fontStyle=1;align=center;verticalAlign=top;childLayout=stackLayout;horizontal=1;startSize=30;horizontalStack=0;resizeParent=1;resizeParentMax=0;resizeLast=0;collapsible=1;marginBottom=0;whiteSpace=wrap;html=1;fillColor=#60a917;fontColor=#ffffff;strokeColor=#2D7600;" parent="1" vertex="1">
          <mxGeometry x="120" y="130" width="210" height="120" as="geometry" />
        </mxCell>
        <mxCell id="LnVoANyj6Dh3y2EfFEzu-17" value="dbConnection: Connection" style="text;html=1;align=center;verticalAlign=middle;resizable=0;points=[];autosize=1;strokeColor=none;fillColor=none;" parent="LnVoANyj6Dh3y2EfFEzu-14" vertex="1">
          <mxGeometry y="30" width="210" height="30" as="geometry" />
        </mxCell>
        <mxCell id="LnVoANyj6Dh3y2EfFEzu-15" value="" style="line;strokeWidth=1;fillColor=none;align=left;verticalAlign=middle;spacingTop=-1;spacingLeft=3;spacingRight=3;rotatable=0;labelPosition=right;points=[];portConstraint=eastwest;strokeColor=inherit;" parent="LnVoANyj6Dh3y2EfFEzu-14" vertex="1">
          <mxGeometry y="60" width="210" height="20" as="geometry" />
        </mxCell>
        <mxCell id="LnVoANyj6Dh3y2EfFEzu-16" value="-openConnection(String)&lt;br&gt;#Connection getConnection()" style="text;strokeColor=none;fillColor=none;align=center;verticalAlign=top;spacingLeft=4;spacingRight=4;overflow=hidden;rotatable=0;points=[[0,0.5],[1,0.5]];portConstraint=eastwest;whiteSpace=wrap;html=1;" parent="LnVoANyj6Dh3y2EfFEzu-14" vertex="1">
          <mxGeometry y="80" width="210" height="40" as="geometry" />
        </mxCell>
        <mxCell id="LnVoANyj6Dh3y2EfFEzu-34" style="edgeStyle=orthogonalEdgeStyle;rounded=0;orthogonalLoop=1;jettySize=auto;html=1;entryX=0.75;entryY=0;entryDx=0;entryDy=0;endArrow=none;endFill=0;" parent="1" source="LnVoANyj6Dh3y2EfFEzu-33" target="LnVoANyj6Dh3y2EfFEzu-4" edge="1">
          <mxGeometry relative="1" as="geometry" />
        </mxCell>
        <mxCell id="LnVoANyj6Dh3y2EfFEzu-33" value="" style="ellipse;whiteSpace=wrap;html=1;aspect=fixed;" parent="1" vertex="1">
          <mxGeometry x="263" y="310" width="30" height="30" as="geometry" />
        </mxCell>
        <mxCell id="LnVoANyj6Dh3y2EfFEzu-35" value="IGestioneAssistenza" style="text;html=1;align=center;verticalAlign=middle;resizable=0;points=[];autosize=1;strokeColor=none;fillColor=none;" parent="1" vertex="1">
          <mxGeometry x="293" y="310" width="130" height="30" as="geometry" />
        </mxCell>
      </root>
    </mxGraphModel>
  </diagram>
</mxfile>
